<svg id="Group_8233" data-name="Group 8233" xmlns="http://www.w3.org/2000/svg" xmlns:xlink="http://www.w3.org/1999/xlink" width="216.465" height="200.277" viewBox="0 0 216.465 200.277">
  <defs>
    <clipPath id="clip-path">
      <rect id="Rectangle_17362" data-name="Rectangle 17362" width="216.465" height="200.276" fill="none"/>
    </clipPath>
    <clipPath id="clip-path-2">
      <rect id="Rectangle_17361" data-name="Rectangle 17361" width="128.793" height="128.792" fill="none"/>
    </clipPath>
  </defs>
  <path id="Path_10251" data-name="Path 10251" d="M62.869,121.057v55.237L95.783,165.7l32.287,10.594V121.057Z" transform="translate(12.455 23.983)" fill="#ff7800"/>
  <g id="Group_8211" data-name="Group 8211">
    <g id="Group_8210" data-name="Group 8210" clip-path="url(#clip-path)">
      <path id="Path_10252" data-name="Path 10252" d="M162.636,106.782s5.046-12.162,9.343-16.895,10.987-7.227,12.266-11.9c0,0-.2,10.65-4.64,17.672-2.659,4.2-7.729,6.463-11.027,7.558a23.663,23.663,0,0,0-5.941,3.566" transform="translate(32.22 15.45)" fill="#4e22d0"/>
      <path id="Path_10253" data-name="Path 10253" d="M162.956,37.165s-4.663-8.7-5.2-13.65-.651-12.566-2.359-15.286c0,0,7.441,6.01,9.163,11.912,1.03,3.532-.034,8.2-.927,11.116a23.587,23.587,0,0,0-.677,5.908" transform="translate(30.786 1.63)" fill="#4e22d0"/>
      <path id="Path_10254" data-name="Path 10254" d="M162.834,106.2s6.246-12.179,4.234-16.99-7.971-9.053-8.895-11.654c0,0-2.485,8.444-1.8,13.524.409,3.041,3.312,6.542,5.123,9.107,1.48,2.1,1.338,6.013,1.338,6.013" transform="translate(30.956 15.364)" fill="#4e22d0"/>
      <path id="Path_10255" data-name="Path 10255" d="M163.437,34.285s-2.391-8.861-7.325-10.461c-3.606-1.169-9.993-2.575-11.927-3.477,0,0,2.279,7.476,7.685,10.316,1.772.932,3.879.695,6.16,1.344a24.917,24.917,0,0,1,5.408,2.278" transform="translate(28.565 4.031)" fill="#4e22d0"/>
      <path id="Path_10256" data-name="Path 10256" d="M165.276,54.051s-2.907-11.289-1.413-17.369,6.533-10.918,5.616-15.149c0,0,4.572,8.5,3.968,16.456a18.2,18.2,0,0,1-4.513,10.654,51.938,51.938,0,0,0-3.658,5.408" transform="translate(32.379 4.266)" fill="#4e22d0"/>
      <path id="Path_10257" data-name="Path 10257" d="M166.066,52.843s-.318-13.2-3.908-15.911-11.429-3.891-13.3-5.523c0,0,2.133,8.227,4.826,12.058,1.611,2.292,6.416,4.307,8.87,5.344,2,.846,3.515,4.033,3.515,4.033" transform="translate(29.49 6.222)" fill="#4e22d0"/>
      <path id="Path_10258" data-name="Path 10258" d="M158.045,24.332c-4.426-3.394-10.223-4.149-12.482-8.989A48.946,48.946,0,0,0,137.2,2.664s8.677.272,14.544,6.386c3.858,4.021,6.306,15.282,6.306,15.282" transform="translate(27.18 0.528)" fill="#4e22d0"/>
      <path id="Path_10259" data-name="Path 10259" d="M124.17,147.038c-.407.477-.295.871.2.955.885.15,3.167-3.568,4.892-5.1,3.147-2.794,5.179-2.922,7.426-2.376a11.32,11.32,0,0,1,4.947,2.611,9.073,9.073,0,0,0,7.67,2.444c8.745-1.556,11.37-9.681,11.37-9.681s-2.182,1.434-7.246.214c-3.679-.887-6.9-1.85-10.839-1.355-7.9.992-14.332,7.493-18.425,12.288" transform="translate(24.55 26.669)" fill="#4e22d0"/>
      <path id="Path_10260" data-name="Path 10260" d="M141.619,132.222s9.263-8.136,14.588-9.333,13.584-.011,16.717-2.931c0,0-3.348,10.456-13.765,13.624-4.059,1.234-8.527.316-11.466-.866-2.4-.966-6.074-.494-6.074-.494" transform="translate(28.056 23.765)" fill="#4e22d0"/>
      <path id="Path_10261" data-name="Path 10261" d="M141.2,133.774s10.147-7.374,10.839-12.8-1.906-12.581-1.431-15.332c0,0-5.657,5.9-7.371,10.851-1.026,2.959-.4,7.721-.238,11.057.135,2.726-1.8,6.227-1.8,6.227" transform="translate(27.974 20.928)" fill="#4e22d0"/>
      <path id="Path_10262" data-name="Path 10262" d="M155.112,120.744s6.469-10.991,11.289-14.547,11.785-2.187,13.819-6.411c0,0-1.657,10.111-6.939,15.858-3.162,3.439-8.786,2.727-12.058,2.981a18.8,18.8,0,0,0-6.11,2.119" transform="translate(30.729 19.769)" fill="#4e22d0"/>
      <path id="Path_10263" data-name="Path 10263" d="M154.841,121.076s7.27-9.3,6.309-14.426-6.188-10.442-6.545-13.158a19.119,19.119,0,0,0-2.626,9c-.072,3.056,2.009,7.556,3.235,12.23.671,2.56-.373,6.355-.373,6.355" transform="translate(30.108 18.522)" fill="#4e22d0"/>
      <path id="Path_10264" data-name="Path 10264" d="M168.667,72.211s-2.817-10.983-.659-17c1.994-5.557,9.375-9.959,8.213-14.662,0,0,4.952,6.47,3.207,14.6-1.278,5.952-4.969,8.49-7.313,11.055a23.669,23.669,0,0,0-3.448,6.011" transform="translate(33.123 8.033)" fill="#4e22d0"/>
      <path id="Path_10265" data-name="Path 10265" d="M170.091,70.712s-.489-13.679-4.592-16.9-9.772-4.213-11.847-6.031c0,0,1.322,9.212,4.4,13.313,1.84,2.455,5.108,3.663,7.94,5.019,2.315,1.107,4.1,4.6,4.1,4.6" transform="translate(30.44 9.467)" fill="#4e22d0"/>
      <path id="Path_10266" data-name="Path 10266" d="M167.992,89.194s.635-11.093,3.176-16.517,9.787-9.429,9.562-14.113c0,0,3.364,9.678,1.461,17.249-1.139,4.53-6.423,6.585-9.178,8.369a27.861,27.861,0,0,0-5.021,5.012" transform="translate(33.281 11.602)" fill="#4e22d0"/>
      <path id="Path_10267" data-name="Path 10267" d="M168.721,88.949s3.058-11.4.169-15.744-9.777-7.193-11.166-9.554a19.117,19.117,0,0,0,1.1,9.309c1.129,2.842,4.8,6.171,7.758,9.993,1.619,2.094,2.141,6,2.141,6" transform="translate(31.215 12.61)" fill="#4e22d0"/>
      <path id="Path_10268" data-name="Path 10268" d="M127.658,144.2s1.493-1.107,4.426-3.449,7.243-6.08,8.08-8.416c1.675-4.673,1.009-11.529,1.977-13.916,0,0-5.991,4.421-8.545,8.648-1.528,2.529-1.988,6.827-2.516,9.772-.43,2.407-3.422,7.361-3.422,7.361" transform="translate(25.291 23.46)" fill="#4e22d0"/>
      <path id="Path_10269" data-name="Path 10269" d="M21.609,106.782S16.563,94.62,12.266,89.888,1.28,82.661,0,77.987c0,0,.2,10.65,4.64,17.672,2.659,4.2,7.729,6.463,11.027,7.558a23.664,23.664,0,0,1,5.941,3.566" transform="translate(0 15.45)" fill="#4e22d0"/>
      <path id="Path_10270" data-name="Path 10270" d="M19.3,37.165s4.663-8.7,5.2-13.65.651-12.566,2.36-15.286c0,0-7.443,6.01-9.164,11.912-1.03,3.532.034,8.2.927,11.116a23.586,23.586,0,0,1,.677,5.908" transform="translate(3.422 1.63)" fill="#4e22d0"/>
      <path id="Path_10271" data-name="Path 10271" d="M19.692,106.2s-6.246-12.179-4.234-16.99,7.971-9.053,8.895-11.654c0,0,2.485,8.444,1.8,13.524-.409,3.041-3.312,6.542-5.123,9.107-1.48,2.1-1.338,6.013-1.338,6.013" transform="translate(2.983 15.364)" fill="#4e22d0"/>
      <path id="Path_10272" data-name="Path 10272" d="M20.418,34.285s2.391-8.861,7.325-10.461c3.606-1.169,9.993-2.575,11.927-3.477,0,0-2.279,7.476-7.685,10.316-1.772.932-3.879.695-6.159,1.344a24.917,24.917,0,0,0-5.408,2.278" transform="translate(4.045 4.031)" fill="#4e22d0"/>
      <path id="Path_10273" data-name="Path 10273" d="M17.06,54.051s2.907-11.289,1.413-17.369-6.533-10.918-5.616-15.149c0,0-4.572,8.5-3.968,16.456A18.2,18.2,0,0,0,13.4,48.643a51.94,51.94,0,0,1,3.658,5.408" transform="translate(1.75 4.266)" fill="#4e22d0"/>
      <path id="Path_10274" data-name="Path 10274" d="M17.452,52.843s.317-13.2,3.908-15.911,11.429-3.891,13.3-5.523c0,0-2.133,8.227-4.826,12.058-1.611,2.292-6.416,4.307-8.87,5.344-2,.846-3.515,4.033-3.515,4.033" transform="translate(3.457 6.222)" fill="#4e22d0"/>
      <path id="Path_10275" data-name="Path 10275" d="M26.075,24.332C30.5,20.938,36.3,20.183,38.557,15.342A48.945,48.945,0,0,1,46.925,2.664s-8.677.272-14.544,6.386c-3.858,4.021-6.306,15.282-6.306,15.282" transform="translate(5.166 0.528)" fill="#4e22d0"/>
      <path id="Path_10276" data-name="Path 10276" d="M62.58,147.038c.407.477.295.871-.2.955-.885.15-3.167-3.568-4.892-5.1-3.147-2.794-5.179-2.922-7.426-2.376a11.32,11.32,0,0,0-4.947,2.611,9.073,9.073,0,0,1-7.67,2.444c-8.745-1.556-11.37-9.681-11.37-9.681s2.182,1.434,7.246.214c3.679-.887,6.9-1.85,10.839-1.355,7.9.992,14.332,7.493,18.425,12.288" transform="translate(5.165 26.669)" fill="#4e22d0"/>
      <path id="Path_10277" data-name="Path 10277" d="M44.229,132.222s-9.263-8.136-14.588-9.333-13.584-.011-16.717-2.931c0,0,3.348,10.456,13.765,13.624,4.059,1.234,8.527.316,11.466-.866,2.4-.966,6.074-.494,6.074-.494" transform="translate(2.56 23.765)" fill="#4e22d0"/>
      <path id="Path_10278" data-name="Path 10278" d="M41.281,133.774s-10.147-7.374-10.839-12.8,1.906-12.581,1.431-15.332c0,0,5.657,5.9,7.371,10.851,1.026,2.959.4,7.721.238,11.057-.135,2.726,1.8,6.227,1.8,6.227" transform="translate(6.007 20.928)" fill="#4e22d0"/>
      <path id="Path_10279" data-name="Path 10279" d="M29.712,120.744S23.243,109.752,18.423,106.2,6.638,104.01,4.6,99.785c0,0,1.657,10.111,6.939,15.858,3.162,3.439,8.786,2.727,12.058,2.981a18.8,18.8,0,0,1,6.11,2.119" transform="translate(0.912 19.769)" fill="#4e22d0"/>
      <path id="Path_10280" data-name="Path 10280" d="M27.363,121.076s-7.27-9.3-6.309-14.426S27.242,96.208,27.6,93.492a19.119,19.119,0,0,1,2.626,9c.072,3.056-2.009,7.556-3.235,12.23-.671,2.56.373,6.355.373,6.355" transform="translate(4.154 18.522)" fill="#4e22d0"/>
      <path id="Path_10281" data-name="Path 10281" d="M14.09,72.211s2.817-10.983.659-17c-1.994-5.557-9.375-9.959-8.213-14.662,0,0-4.952,6.47-3.207,14.6C4.607,61.1,8.3,63.635,10.642,66.2a23.67,23.67,0,0,1,3.448,6.011" transform="translate(0.586 8.033)" fill="#4e22d0"/>
      <path id="Path_10282" data-name="Path 10282" d="M13.3,70.712s.489-13.679,4.592-16.9,9.772-4.213,11.847-6.031c0,0-1.322,9.212-4.4,13.313-1.84,2.455-5.108,3.663-7.94,5.019-2.315,1.107-4.1,4.6-4.1,4.6" transform="translate(2.635 9.467)" fill="#4e22d0"/>
      <path id="Path_10283" data-name="Path 10283" d="M15.124,89.194S14.489,78.1,11.948,72.677,2.161,63.247,2.386,58.564c0,0-3.364,9.678-1.46,17.249,1.139,4.53,6.423,6.585,9.178,8.369a27.862,27.862,0,0,1,5.021,5.012" transform="translate(0.068 11.602)" fill="#4e22d0"/>
      <path id="Path_10284" data-name="Path 10284" d="M14.03,88.949s-3.058-11.4-.169-15.744,9.777-7.193,11.166-9.554a19.117,19.117,0,0,1-1.1,9.309c-1.129,2.842-4.8,6.171-7.758,9.993-1.619,2.094-2.141,6-2.141,6" transform="translate(2.5 12.61)" fill="#4e22d0"/>
      <path id="Path_10285" data-name="Path 10285" d="M55.41,144.2s-1.494-1.107-4.427-3.449-7.243-6.08-8.08-8.416c-1.675-4.673-1.008-11.529-1.977-13.916,0,0,5.991,4.421,8.545,8.648,1.528,2.529,1.988,6.827,2.516,9.772.43,2.407,3.423,7.361,3.423,7.361" transform="translate(8.108 23.46)" fill="#4e22d0"/>
      <path id="Path_10286" data-name="Path 10286" d="M104.13,169.949A84.974,84.974,0,1,1,189.1,84.975a84.975,84.975,0,0,1-84.975,84.974" transform="translate(3.795)" fill="#ff7800"/>
      <path id="Path_10287" data-name="Path 10287" d="M158.682,139.527a78.631,78.631,0,1,1,0-111.2,78.631,78.631,0,0,1,0,111.2" transform="translate(4.844 1.049)" fill="#2b2d2e"/>
      <path id="Path_10288" data-name="Path 10288" d="M158.682,139.527a78.631,78.631,0,1,1,0-111.2,78.631,78.631,0,0,1,0,111.2" transform="translate(4.844 1.049)" fill="#fff"/>
      <path id="Path_10289" data-name="Path 10289" d="M30.136,100.427a74.184,74.184,0,1,1,89.308,55.051,74.184,74.184,0,0,1-89.308-55.051" transform="translate(5.57 1.802)" fill="#4e22d0"/>
      <path id="Path_10290" data-name="Path 10290" d="M155.505,115.463a64.387,64.387,0,1,1-21.024-88.6,64.387,64.387,0,0,1,21.024,88.6" transform="translate(7.191 3.424)" fill="#4e22d0"/>
      <g id="Group_8209" data-name="Group 8209" transform="translate(43.49 20.705)" style="mix-blend-mode: multiply;isolation: isolate">
        <g id="Group_8208" data-name="Group 8208">
          <g id="Group_8207" data-name="Group 8207" clip-path="url(#clip-path-2)">
            <path id="Path_10291" data-name="Path 10291" d="M155.505,115.463a64.387,64.387,0,1,1-21.024-88.6,64.387,64.387,0,0,1,21.024,88.6" transform="translate(-36.299 -17.281)" fill="#4e22d0"/>
          </g>
        </g>
      </g>
    </g>
  </g>
</svg>
