<svg xmlns="http://www.w3.org/2000/svg" width="21.072" height="20.62" viewBox="0 0 21.072 20.62">
  <g id="_005-info" data-name="005-info" transform="translate(8.799 -1.922)">
    <path id="Path_10157" data-name="Path 10157" d="M29.02,3.048a2.893,2.893,0,0,1-.977,2.2,3.326,3.326,0,0,1-2.352.911,3.363,3.363,0,0,1-2.365-.911,2.887,2.887,0,0,1-.986-2.2A2.916,2.916,0,0,1,23.326.839a3.49,3.49,0,0,1,4.717,0A2.921,2.921,0,0,1,29.02,3.048Z" transform="translate(-31.139 2)" fill="#2d364c"/>
    <path id="Path_10246" data-name="Path 10246" d="M29.02,3.048a2.893,2.893,0,0,1-.977,2.2,3.326,3.326,0,0,1-2.352.911,3.363,3.363,0,0,1-2.365-.911,2.887,2.887,0,0,1-.986-2.2A2.916,2.916,0,0,1,23.326.839a3.49,3.49,0,0,1,4.717,0A2.921,2.921,0,0,1,29.02,3.048Z" transform="translate(-31.139 9.19)" fill="#2d364c"/>
    <path id="Path_10247" data-name="Path 10247" d="M29.02,3.048a2.893,2.893,0,0,1-.977,2.2,3.326,3.326,0,0,1-2.352.911,3.363,3.363,0,0,1-2.365-.911,2.887,2.887,0,0,1-.986-2.2A2.916,2.916,0,0,1,23.326.839a3.49,3.49,0,0,1,4.717,0A2.921,2.921,0,0,1,29.02,3.048Z" transform="translate(-31.139 16.381)" fill="#2d364c"/>
    <line id="Line_105" data-name="Line 105" x2="11.994" transform="translate(-0.222 4.925)" fill="none" stroke="#2d364c" stroke-linecap="round" stroke-width="1"/>
    <line id="Line_106" data-name="Line 106" x2="11.994" transform="translate(-0.222 12.232)" fill="none" stroke="#2d364c" stroke-linecap="round" stroke-width="1"/>
    <line id="Line_107" data-name="Line 107" x2="11.994" transform="translate(-0.222 19.539)" fill="none" stroke="#2d364c" stroke-linecap="round" stroke-width="1"/>
  </g>
</svg>
