<svg id="_005-info" data-name="005-info" xmlns="http://www.w3.org/2000/svg" width="9.871" height="22.341" viewBox="0 0 9.871 22.341">
  <path id="Path_10157" data-name="Path 10157" d="M40.714,19.93,40.4,21.206q-1.4.554-2.242.844a5.912,5.912,0,0,1-1.944.291,3.881,3.881,0,0,1-2.644-.829,2.684,2.684,0,0,1-.943-2.107,7.452,7.452,0,0,1,.07-1.014q.072-.519.228-1.171l1.17-4.142q.156-.595.263-1.128a4.9,4.9,0,0,0,.107-.971,1.5,1.5,0,0,0-.328-1.107,1.85,1.85,0,0,0-1.252-.313,3.28,3.28,0,0,0-.93.142c-.318.094-.59.185-.819.27l.313-1.277q1.15-.468,2.2-.8a6.581,6.581,0,0,1,1.99-.334,3.786,3.786,0,0,1,2.6.816,2.709,2.709,0,0,1,.915,2.121c0,.18-.02.5-.063.95a6.357,6.357,0,0,1-.234,1.249L37.7,16.821a10.959,10.959,0,0,0-.256,1.136,5.85,5.85,0,0,0-.114.964,1.389,1.389,0,0,0,.367,1.121,2.072,2.072,0,0,0,1.275.3,3.681,3.681,0,0,0,.964-.149A5.39,5.39,0,0,0,40.714,19.93Zm.3-17.321a2.414,2.414,0,0,1-.815,1.837,2.775,2.775,0,0,1-1.963.76,2.806,2.806,0,0,1-1.973-.76,2.409,2.409,0,0,1-.823-1.837A2.433,2.433,0,0,1,36.259.765a2.912,2.912,0,0,1,3.936,0A2.438,2.438,0,0,1,41.01,2.609Z" transform="translate(-31.139)" fill="#2d364c"/>
</svg>
