<?xml version="1.0" encoding="UTF-8" standalone="no"?>
<svg
   xmlns:dc="http://purl.org/dc/elements/1.1/"
   xmlns:cc="http://creativecommons.org/ns#"
   xmlns:rdf="http://www.w3.org/1999/02/22-rdf-syntax-ns#"
   xmlns:svg="http://www.w3.org/2000/svg"
   xmlns="http://www.w3.org/2000/svg"
   xmlns:sodipodi="http://sodipodi.sourceforge.net/DTD/sodipodi-0.dtd"
   xmlns:inkscape="http://www.inkscape.org/namespaces/inkscape"
   id="shopping-bag"
   width="16.013"
   height="18.634"
   viewBox="0 0 16.013 18.634"
   version="1.1"
   sodipodi:docname="myorders.svg"
   inkscape:version="0.92.1 r15371">
  <metadata
     id="metadata9">
    <rdf:RDF>
      <cc:Work
         rdf:about="">
        <dc:format>image/svg+xml</dc:format>
        <dc:type
           rdf:resource="http://purl.org/dc/dcmitype/StillImage" />
      </cc:Work>
    </rdf:RDF>
  </metadata>
  <defs
     id="defs7" />
  <sodipodi:namedview
     pagecolor="#ffffff"
     bordercolor="#666666"
     borderopacity="1"
     objecttolerance="10"
     gridtolerance="10"
     guidetolerance="10"
     inkscape:pageopacity="0"
     inkscape:pageshadow="2"
     inkscape:window-width="640"
     inkscape:window-height="480"
     id="namedview5"
     showgrid="false"
     inkscape:zoom="12.66502"
     inkscape:cx="8.0064993"
     inkscape:cy="9.3169995"
     inkscape:window-x="0"
     inkscape:window-y="0"
     inkscape:window-maximized="0"
     inkscape:current-layer="shopping-bag" />
  <g
     id="Group_8094"
     data-name="Group 8094"
     transform="matrix(0.74360814,0,0,0.80998458,2.1314931,1.4878487)">
    <path
       id="Path_10159"
       data-name="Path 10159"
       d="M 50.995,5.084 A 0.146,0.146 0 0 0 50.85,4.949 H 48.23 V 4.222 a 4.222,4.222 0 1 0 -8.443,0 V 4.95 h -2.62 A 0.146,0.146 0 0 0 37.022,5.085 L 36,18.477 a 0.146,0.146 0 0 0 0.145,0.157 h 15.723 a 0.146,0.146 0 0 0 0.145,-0.156 z M 40.95,4.222 a 3.057,3.057 0 1 1 6.114,0 V 4.95 H 40.95 Z m -0.582,4.8 A 1.457,1.457 0 0 1 38.912,7.57 1.375,1.375 0 0 1 39.785,6.236 V 7.57 a 0.5825,0.5825 0 0 0 1.165,0 V 6.237 a 1.378,1.378 0 0 1 0.873,1.333 1.457,1.457 0 0 1 -1.455,1.456 z m 7.279,0 A 1.457,1.457 0 0 1 46.191,7.57 1.375,1.375 0 0 1 47.064,6.236 V 7.57 a 0.5825,0.5825 0 1 0 1.165,0 V 6.237 A 1.378,1.378 0 0 1 49.1,7.57 1.457,1.457 0 0 1 47.647,9.026 Z"
       transform="translate(-36.001)"
       inkscape:connector-curvature="0"
       style="fill:#2d364c" />
  </g>
</svg>
