<svg id="Group_8081" data-name="Group 8081" xmlns="http://www.w3.org/2000/svg" width="15.305" height="19.31" viewBox="0 0 15.305 19.31">
  <g id="_003-bell" data-name="003-bell">
    <path id="Path_10149" data-name="Path 10149" d="M184.9,465.044a2.917,2.917,0,0,0,5.34,0Z" transform="translate(-179.922 -447.476)" fill="#2d364c"/>
    <path id="Path_10150" data-name="Path 10150" d="M198.517,1.845a6.561,6.561,0,0,1,2.24.392V2.151A2.154,2.154,0,0,0,198.606,0h-.178a2.154,2.154,0,0,0-2.151,2.151v.085A6.574,6.574,0,0,1,198.517,1.845Z" transform="translate(-190.865 0)" fill="#2d364c"/>
    <path id="Path_10151" data-name="Path 10151" d="M67.736,92.292H53.6a.576.576,0,0,1-.568-.442.55.55,0,0,1,.3-.626,3,3,0,0,0,.913-1.241,14.344,14.344,0,0,0,.952-5.676,5.471,5.471,0,0,1,10.942-.022c0,.007,0,.014,0,.022a14.344,14.344,0,0,0,.952,5.676A3,3,0,0,0,68,91.225a.55.55,0,0,1,.3.626A.576.576,0,0,1,67.736,92.292Zm.272-1.064h0Z" transform="translate(-53.013 -75.858)" fill="#2d364c"/>
  </g>
</svg>
