<svg id="_002-income" data-name="002-income" xmlns="http://www.w3.org/2000/svg" width="25.206" height="25.56" viewBox="0 0 25.206 25.56">
  <path id="Path_10146" data-name="Path 10146" d="M185.072,12.646a6.323,6.323,0,1,0-6.323-6.323A6.33,6.33,0,0,0,185.072,12.646Zm-.749-10.04V2.435a.749.749,0,0,1,1.5,0v.173a1.98,1.98,0,0,1,1.562,1.933.749.749,0,1,1-1.5,0,.48.48,0,0,0-.479-.479h-.672a.479.479,0,0,0-.285.864l.623.461,1.514,1.12a1.985,1.985,0,0,1,.8,1.576v.007a1.978,1.978,0,0,1-1.566,1.947v.175a.749.749,0,0,1-1.5,0v-.173a1.977,1.977,0,0,1-1.561-1.921.749.749,0,0,1,.744-.753h.005a.749.749,0,0,1,.749.744.478.478,0,0,0,.482.476l.67,0a.479.479,0,0,0,.476-.483V8.092a.481.481,0,0,0-.194-.382l-.623-.461-1.514-1.12a1.977,1.977,0,0,1,.765-3.523Z" transform="translate(-170.002)" fill="#2d364c"/>
  <path id="Path_10147" data-name="Path 10147" d="M8.373,318.75a.7.7,0,0,0-.953-.255L3.9,320.528a.7.7,0,0,0-.255.954l3.6,6.236a.7.7,0,0,0,.953.255l3.522-2.034a.7.7,0,0,0,.255-.953Z" transform="translate(-3.548 -302.506)" fill="#2d364c"/>
  <path id="Path_10148" data-name="Path 10148" d="M154.65,273.373a1.049,1.049,0,0,0-1.465-.238l-4.384,3.159a2.636,2.636,0,0,1-.316.231,2.716,2.716,0,0,1-1.452.416h-3.587a.749.749,0,1,1,0-1.5h3.836a.992.992,0,0,0,.991-1.034,1.008,1.008,0,0,0-1.015-.951h-2.92a4.857,4.857,0,0,0-.646-.572,4.79,4.79,0,0,0-2.853-.937,5.284,5.284,0,0,0-4.571,2.793l3.063,5.305h5.746a6.449,6.449,0,0,0,3.218-.851,12.886,12.886,0,0,0,1.1-.711c1.648-1.184,5.019-3.644,5.021-3.646A1.05,1.05,0,0,0,154.65,273.373Z" transform="translate(-129.642 -258.373)" fill="#2d364c"/>
</svg>
