<?xml version="1.0" encoding="UTF-8" standalone="no"?>
<svg
   xmlns:dc="http://purl.org/dc/elements/1.1/"
   xmlns:cc="http://creativecommons.org/ns#"
   xmlns:rdf="http://www.w3.org/1999/02/22-rdf-syntax-ns#"
   xmlns:svg="http://www.w3.org/2000/svg"
   xmlns="http://www.w3.org/2000/svg"
   xmlns:sodipodi="http://sodipodi.sourceforge.net/DTD/sodipodi-0.dtd"
   xmlns:inkscape="http://www.inkscape.org/namespaces/inkscape"
   width="30"
   height="34"
   viewBox="0 0 30 34"
   version="1.1"
   id="svg12"
   sodipodi:docname="moreicon.svg"
   inkscape:version="0.92.1 r15371">
  <metadata
     id="metadata18">
    <rdf:RDF>
      <cc:Work
         rdf:about="">
        <dc:format>image/svg+xml</dc:format>
        <dc:type
           rdf:resource="http://purl.org/dc/dcmitype/StillImage" />
      </cc:Work>
    </rdf:RDF>
  </metadata>
  <defs
     id="defs16" />
  <sodipodi:namedview
     pagecolor="#ffffff"
     bordercolor="#666666"
     borderopacity="1"
     objecttolerance="10"
     gridtolerance="10"
     guidetolerance="10"
     inkscape:pageopacity="0"
     inkscape:pageshadow="2"
     inkscape:window-width="640"
     inkscape:window-height="480"
     id="namedview14"
     showgrid="false"
     inkscape:zoom="6.9411765"
     inkscape:cx="15"
     inkscape:cy="11.237288"
     inkscape:window-x="0"
     inkscape:window-y="0"
     inkscape:window-maximized="0"
     inkscape:current-layer="Group_6818" />
  <g
     id="Group_6818"
     data-name="Group 6818"
     transform="translate(-327 -751)">
    <g
       id="Group_6814"
       data-name="Group 6814"
       transform="matrix(1.3209863,0,0,1.5195739,6998.034,24.407019)">
      <path
         id="Path_2718"
         data-name="Path 2718"
         d="m 301.772,3.784 h -14.16 a 0.772,0.772 0 0 0 -0.772,0.772 v 0.712 a 0.772,0.772 0 0 0 0.772,0.772 h 14.16 a 0.773,0.773 0 0 0 0.773,-0.772 V 4.557 a 0.773,0.773 0 0 0 -0.773,-0.772 z"
         transform="translate(-5333,477.216)"
         inkscape:connector-curvature="0"
         style="fill:#4e22d0" />
      <path
         id="Path_2719"
         data-name="Path 2719"
         d="m 301.772,18.726 h -14.16 a 0.771,0.771 0 0 0 -0.772,0.772 v 0.713 a 0.772,0.772 0 0 0 0.772,0.772 h 14.16 a 0.773,0.773 0 0 0 0.773,-0.772 V 19.5 a 0.773,0.773 0 0 0 -0.773,-0.772 z"
         transform="translate(-5333,475.822)"
         inkscape:connector-curvature="0"
         style="fill:#4e22d0" />
      <path
         id="Path_2720"
         data-name="Path 2720"
         d="m 303.1,14.518 a 0.773,0.773 0 0 0 -0.773,-0.772 h -8.8 a 0.773,0.773 0 0 0 -0.773,0.772 v 0.712 a 0.772,0.772 0 0 0 0.773,0.772 h 8.8 A 0.773,0.773 0 0 0 303.1,15.23 Z"
         transform="translate(-5333.551,476.286)"
         inkscape:connector-curvature="0"
         style="fill:#4e22d0" />
      <path
         id="Path_2721"
         data-name="Path 2721"
         d="m 303.1,9.565 a 0.773,0.773 0 0 0 -0.773,-0.772 h -8.8 a 0.773,0.773 0 0 0 -0.773,0.772 v 0.712 a 0.769,0.769 0 0 0 0.059,0.3 0.772,0.772 0 0 0 0.714,0.477 h 8.8 a 0.773,0.773 0 0 0 0.773,-0.772 z"
         transform="translate(-5333.551,476.748)"
         inkscape:connector-curvature="0"
         style="fill:#4e22d0" />
      <path
         id="Path_2722"
         data-name="Path 2722"
         d="m 286.97,14.1 a 0.132,0.132 0 0 0 0.05,-0.01 0.13,0.13 0 0 0 0.042,-0.029 l 2.817,-1.626 V 12.43 a 0.128,0.128 0 0 0 0.048,-0.046 0.141,0.141 0 0 0 0.018,-0.064 0.137,0.137 0 0 0 -0.022,-0.07 0.127,0.127 0 0 0 -0.055,-0.047 v 0 l -2.805,-1.62 a 0.131,0.131 0 0 0 -0.065,-0.034 0.126,0.126 0 0 0 -0.073,0.007 0.122,0.122 0 0 0 -0.057,0.046 0.129,0.129 0 0 0 -0.024,0.07 v 0 3.3 a 0.114,0.114 0 0 0 0.009,0.049 0.129,0.129 0 0 0 0.12,0.079 z"
         transform="translate(-5333,476.586)"
         inkscape:connector-curvature="0"
         style="fill:#4e22d0" />
    </g>
  </g>
</svg>
