<?xml version="1.0" encoding="UTF-8" standalone="no"?>
<svg
   xmlns:dc="http://purl.org/dc/elements/1.1/"
   xmlns:cc="http://creativecommons.org/ns#"
   xmlns:rdf="http://www.w3.org/1999/02/22-rdf-syntax-ns#"
   xmlns:svg="http://www.w3.org/2000/svg"
   xmlns="http://www.w3.org/2000/svg"
   xmlns:sodipodi="http://sodipodi.sourceforge.net/DTD/sodipodi-0.dtd"
   xmlns:inkscape="http://www.inkscape.org/namespaces/inkscape"
   width="30"
   height="34"
   viewBox="0 0 30 34"
   version="1.1"
   id="svg12"
   sodipodi:docname="profileicon.svg"
   inkscape:version="0.92.1 r15371">
  <metadata
     id="metadata18">
    <rdf:RDF>
      <cc:Work
         rdf:about="">
        <dc:format>image/svg+xml</dc:format>
        <dc:type
           rdf:resource="http://purl.org/dc/dcmitype/StillImage" />
        <dc:title />
      </cc:Work>
    </rdf:RDF>
  </metadata>
  <defs
     id="defs16" />
  <sodipodi:namedview
     pagecolor="#ffffff"
     bordercolor="#666666"
     borderopacity="1"
     objecttolerance="10"
     gridtolerance="10"
     guidetolerance="10"
     inkscape:pageopacity="0"
     inkscape:pageshadow="2"
     inkscape:window-width="640"
     inkscape:window-height="480"
     id="namedview14"
     showgrid="false"
     inkscape:zoom="6.9411765"
     inkscape:cx="15"
     inkscape:cy="11.237288"
     inkscape:window-x="0"
     inkscape:window-y="0"
     inkscape:window-maximized="0"
     inkscape:current-layer="Group_6818" />
  <g
     id="Group_6818"
     data-name="Group 6818"
     transform="translate(-327 -751)">
    <g
       id="layer1"
       inkscape:label="Layer 1"
       transform="matrix(5.9632373,0.08096851,-0.0843536,5.7239338,-228.91485,-91.212234)">
      <g
         id="Group_6816"
         data-name="Group 6816"
         transform="matrix(0.26458333,0,0,0.26458333,69.642667,-55.492435)">
        <g
           id="Group_6817"
           data-name="Group 6817"
           transform="translate(-174.67458,12.080975)">
          <g
             id="man-user"
             transform="translate(233.105,751.08)">
            <path
               style="fill:#4e22d0"
               inkscape:connector-curvature="0"
               id="Path_4253"
               data-name="Path 4253"
               d="m 108.03,8.49 c 1.93,0 3.5,-1.9 3.5,-4.245 C 111.53,1.9 111.011,0 108.03,0 c -2.981,0 -3.5,1.9 -3.5,4.245 0,2.345 1.57,4.245 3.5,4.245 z"
               transform="translate(-59.533)" />
            <path
               style="fill:#4e22d0"
               inkscape:connector-curvature="0"
               id="Path_4254"
               data-name="Path 4254"
               d="m 41.9,300.445 c 0,-0.143 0,-0.04 0,0 z"
               transform="translate(0,-285.473)" />
            <path
               style="fill:#4e22d0"
               inkscape:connector-curvature="0"
               id="Path_4255"
               data-name="Path 4255"
               d="m 308.085,301.616 c 0,-0.039 0,-0.272 0,0 z"
               transform="translate(-252.986,-286.532)" />
            <path
               style="fill:#4e22d0"
               inkscape:connector-curvature="0"
               id="Path_4256"
               data-name="Path 4256"
               d="m 55.1,183.725 c -0.065,-4.084 -0.6,-5.248 -4.68,-5.985 a 2.867,2.867 0 0 1 -3.828,0 c -4.037,0.729 -4.6,1.875 -4.678,5.852 -0.006,0.325 -0.009,0.342 -0.01,0.3 0,0.071 0,0.2 0,0.429 0,0 0.972,1.959 6.6,1.959 5.628,0 6.6,-1.959 6.6,-1.959 0,-0.146 0,-0.248 0,-0.317 A 2.631,2.631 0 0 1 55.1,183.725 Z"
               transform="translate(-0.012,-168.924)" />
          </g>
        </g>
      </g>
    </g>
  </g>
</svg>
